<?xml version="1.0" encoding="iso-8859-1"?>
<!-- Generator: Adobe Illustrator 19.0.0, SVG Export Plug-In . SVG Version: 6.00 Build 0)  -->
<svg version="1.1" id="Layer_1" xmlns="http://www.w3.org/2000/svg" xmlns:xlink="http://www.w3.org/1999/xlink" x="0px" y="0px"
	 viewBox="0 0 512 512" style="enable-background:new 0 0 512 512;" xml:space="preserve">
<rect x="169.393" y="117.174" style="fill:#F8A805;" width="171.94" height="127.363"/>
<rect x="169.393" y="244.537" style="fill:#4898DA;" width="171.94" height="146.468"/>
<g>
	<rect x="113.353" y="244.537" style="fill:#F8A805;" width="56.04" height="115.9"/>
	<rect x="341.333" y="244.537" style="fill:#F8A805;" width="56.04" height="115.9"/>
	<rect x="169.393" y="391.005" style="fill:#F8A805;" width="50.945" height="57.313"/>
</g>
<rect x="150.289" y="448.318" style="fill:#4898DA;" width="76.418" height="50.945"/>
<rect x="290.388" y="391.005" style="fill:#F8A805;" width="50.945" height="57.313"/>
<rect x="284.02" y="448.318" style="fill:#4898DA;" width="76.418" height="50.945"/>
<circle style="fill:#D25256;" cx="256" cy="44.577" r="31.841"/>
<g>
	<path style="fill:#231F20;" d="M398.01,231.801h-43.303V117.174c0-7.034-5.702-12.736-12.736-12.736h-73.871V87.472
		c18.716-5.288,32.478-22.509,32.478-42.895C300.577,19.997,280.58,0,256,0s-44.577,19.997-44.577,44.577
		c0,19.922,13.139,36.831,31.204,42.525v17.335H170.03c-7.034,0-12.736,5.702-12.736,12.736v114.627H113.99
		c-7.034,0-12.736,5.702-12.736,12.736v115.9c0,7.034,5.702,12.736,12.736,12.736h43.303v62.408h-6.368
		c-7.034,0-12.736,5.702-12.736,12.736v50.945c0,7.034,5.702,12.736,12.736,12.736h76.418c7.034,0,12.736-5.702,12.736-12.736
		v-50.945c0-4.711-2.565-8.816-6.368-11.018v-33.559h44.577V437.3c-3.803,2.203-6.368,6.307-6.368,11.018v50.945
		c0,7.034,5.702,12.736,12.736,12.736h76.418c7.034,0,12.736-5.702,12.736-12.736v-50.945c0-7.034-5.702-12.736-12.736-12.736
		h-6.368v-62.408h43.303c7.034,0,12.736-5.702,12.736-12.736v-115.9C410.746,237.503,405.044,231.801,398.01,231.801z
		 M236.896,44.577c0-10.534,8.57-19.104,19.104-19.104s19.104,8.57,19.104,19.104S266.534,63.682,256,63.682
		S236.896,55.111,236.896,44.577z M329.234,378.269H182.766V257.274h146.468V378.269z M182.766,129.91h146.468v101.891H182.766
		V129.91z M126.726,347.701v-90.428h30.567v90.428H126.726z M214.607,486.527h-50.945v-25.473h50.945V486.527z M208.239,435.582
		h-25.473v-31.841h25.473V435.582z M348.338,486.527h-50.945v-25.473h50.945V486.527z M303.761,435.582v-31.841h25.473v31.841
		H303.761z M385.274,347.701h-30.567v-90.428h30.567V347.701z"/>
	<circle style="fill:#231F20;" cx="228.617" cy="180.856" r="12.736"/>
	<circle style="fill:#231F20;" cx="283.383" cy="180.856" r="12.736"/>
	<path style="fill:#231F20;" d="M227.849,345.668c2.49,2.513,5.768,3.771,9.048,3.771c3.24,0,6.48-1.229,8.965-3.69l10.058-9.966
		l9.967,10.058c2.49,2.513,5.768,3.771,9.048,3.771c3.24,0,6.482-1.229,8.965-3.69c4.996-4.951,5.033-13.015,0.082-18.012
		l-9.966-10.058l10.058-9.966c4.996-4.951,5.033-13.015,0.081-18.012c-4.951-4.996-13.014-5.033-18.012-0.082l-10.058,9.966
		l-9.967-10.058c-4.951-4.996-13.015-5.033-18.012-0.082c-4.996,4.951-5.033,13.015-0.082,18.012l9.966,10.058l-10.058,9.966
		C222.934,332.606,222.897,340.671,227.849,345.668z"/>
</g>
<g>
</g>
<g>
</g>
<g>
</g>
<g>
</g>
<g>
</g>
<g>
</g>
<g>
</g>
<g>
</g>
<g>
</g>
<g>
</g>
<g>
</g>
<g>
</g>
<g>
</g>
<g>
</g>
<g>
</g>
</svg>
