<?xml version="1.0" encoding="iso-8859-1"?>
<!-- Generator: Adobe Illustrator 19.0.0, SVG Export Plug-In . SVG Version: 6.00 Build 0)  -->
<svg version="1.1" id="Capa_1" xmlns="http://www.w3.org/2000/svg" xmlns:xlink="http://www.w3.org/1999/xlink" x="0px" y="0px"
	 viewBox="0 0 512.001 512.001" style="enable-background:new 0 0 512.001 512.001;" xml:space="preserve">
<g>
	<g>
		<circle style="fill:#FF3D53;" cx="215.999" cy="107.2" r="20"/>
		<circle style="fill:#FF3D53;" cx="295.999" cy="107.2" r="20"/>
	</g>
	<path style="fill:#E6E6E6;" d="M296,127.199c-11.046,0-20-8.955-20-20c0-11.046,8.954-20,20-20c11.045,0,20,8.954,20,20
		C316,118.244,307.044,127.199,296,127.199L296,127.199z M277,51.999h-42h-77.4v34.2v42v51h61.201h74.398H354.4v-51v-42v-34.2
		L277,51.999L277,51.999z M236,107.199c0,11.045-8.954,20-20,20c-11.045,0-20-8.955-20-20c0-11.046,8.955-20,20-20
		S236,96.153,236,107.199z"/>
	<g>
		<path style="fill:#FFBC44;" d="M157.599,128.199v-42h-21c-11.55,0-21,9.449-21,21c0,11.55,9.45,21,21,21H157.599z"/>
		<path style="fill:#FFBC44;" d="M235,30.999v21h42v-21C277,19.449,267.55,10,256,10C244.449,10,235,19.449,235,30.999z"/>
		<path style="fill:#FFBC44;" d="M354.4,86.199v42h21c11.55,0,20.999-9.45,20.999-21c0-11.551-9.449-21-20.999-21
			C375.4,86.199,354.4,86.199,354.4,86.199z"/>
	</g>
	<rect x="218.799" y="179.2" style="fill:#6B6D95;" width="74.4" height="36.6"/>
	<polygon style="fill:#E6E6E6;" points="293.199,215.799 218.8,215.799 157.599,215.799 157.599,268.436 157.599,376 232,376 
		280,376 354.4,376 354.4,268.436 354.4,215.799 	"/>
	<rect x="120.999" y="215.8" style="fill:#6B6D95;" width="36.6" height="52.637"/>
	<polygon style="fill:#E6E6E6;" points="121,268.436 121,215.799 84.4,215.799 84.4,376 121,376 	"/>
	<rect x="354.399" y="215.8" style="fill:#6B6D95;" width="36.6" height="52.637"/>
	<polygon style="fill:#E6E6E6;" points="391,215.799 391,268.436 391,376 427.599,376 427.599,215.799 	"/>
	<g>
		<rect x="279.999" y="376" style="fill:#6B6D95;" width="74.4" height="89.4"/>
		<rect x="157.599" y="376" style="fill:#6B6D95;" width="74.4" height="89.4"/>
	</g>
	<g>
		<rect x="157.599" y="465.4" style="fill:#E6E6E6;" width="74.4" height="36.6"/>
		<rect x="279.999" y="465.4" style="fill:#E6E6E6;" width="74.4" height="36.6"/>
	</g>
</g>
<path d="M296,137.199c16.542,0,30-13.458,30-30.001c0-16.542-13.458-30-30-30s-30,13.458-30,30
	C266,123.741,279.457,137.199,296,137.199z M296,97.198c5.514,0,10,4.486,10,10c0,5.515-4.486,10.001-10,10.001s-10-4.486-10-10.001
	C286,101.685,290.485,97.198,296,97.198z"/>
<path d="M246,107.198c0-16.542-13.458-30-30-30s-30,13.458-30,30c0,16.543,13.458,30.001,30,30.001S246,123.741,246,107.198z
	 M216,117.199c-5.514,0-10-4.486-10-10.001c0-5.514,4.486-10,10-10s10,4.486,10,10C226,112.713,221.514,117.199,216,117.199z"/>
<path d="M364.4,502.001V278.436H381V376c0,5.522,4.477,10,10,10h36.6c5.523,0,10-4.478,10-10V215.799c0-5.523-4.477-10-10-10l0,0
	H303.199l0,0v-16.6H354.4c5.523,0,10-4.478,10-10v-41h11c17.093,0,30.999-13.906,30.999-31s-13.906-31-30.999-31h-11v-24.2
	c0-5.522-4.477-10-10-10H287v-11C287,13.906,273.093,0,256,0s-31,13.906-31,30.999v11h-67.4c-5.523,0-10,4.478-10,10v24.2h-11
	c-17.093,0-31,13.906-31,31s13.907,31,31,31h11v41c0,5.522,4.477,10,10,10h51.201v16.6l0,0h-124.4l0,0c-5.523,0-10,4.477-10,10V376
	c0,5.522,4.477,10,10,10h36.6c5.523,0,10-4.478,10-10v-97.564h16.6l0,0v223.565l0,0c0,5.522,4.477,10,10,10h74.4
	c5.523,0,10-4.477,10-10l0,0V386h28v116.001l0,0c0,5.522,4.477,10,10,10h74.4C359.923,512.001,364.4,507.523,364.4,502.001
	 M344.4,225.799V366l0,0H167.599l0,0V225.799l0,0l0,0H344.4L344.4,225.799L344.4,225.799z M375.4,96.199
	c6.065,0,10.999,4.935,10.999,11s-4.934,11-10.999,11h-11v-22H375.4z M245,30.999C245,24.935,249.935,20,256,20
	c6.065,0,11,4.935,11,10.999v11h-22V30.999z M136.599,118.199c-6.065,0-11-4.935-11-11s4.935-11,11-11h11v22H136.599z
	 M167.599,169.199v-107.2l0,0l0,0H344.4l0,0l0,0v107.2l0,0l0,0H167.599L167.599,169.199L167.599,169.199z M228.8,189.199h54.399
	v16.6h-54.398v-16.6H228.8z M111,366H94.4V225.799H111l0,0V366z M131,258.436v-32.637h16.6v32.637H131z M222,492.001h-54.4v-16.6
	H222V492.001z M222,455.401h-54.4V386H222V455.401z M344.4,386v69.401H290V386H344.4z M344.4,492.001H290v-16.6h54.4V492.001z
	 M364.4,258.436v-32.637H381v32.637H364.4z M417.599,366h-16.6V225.799l0,0h16.6V366z"/>
<path d="M216.701,286.799h0.256c5.523,0,10-4.478,10-10s-4.477-10-10-10h-0.256c-5.523,0-10,4.478-10,10
	S211.178,286.799,216.701,286.799z"/>
<path d="M237.673,276.796c0,5.522,4.477,10,10,10h47.625c5.523,0,10-4.478,10-10s-4.477-10-10-10h-47.625
	C242.15,266.796,237.673,271.273,237.673,276.796z"/>
<path d="M264.326,304.999h-47.625c-5.523,0-10,4.478-10,10c0,5.523,4.477,10,10,10h47.625c5.523,0,10-4.477,10-10
	C274.326,309.477,269.849,304.999,264.326,304.999z"/>
<path d="M295.298,305.003h-0.256c-5.523,0-10,4.478-10,10s4.477,10,10,10h0.256c5.523,0,10-4.478,10-10
	C305.298,309.48,300.821,305.003,295.298,305.003z"/>
<g>
</g>
<g>
</g>
<g>
</g>
<g>
</g>
<g>
</g>
<g>
</g>
<g>
</g>
<g>
</g>
<g>
</g>
<g>
</g>
<g>
</g>
<g>
</g>
<g>
</g>
<g>
</g>
<g>
</g>
</svg>
